<svg width="64" height="58" viewBox="0 0 64 58" fill="none" xmlns="http://www.w3.org/2000/svg">
<path d="M2.86932 49V19.9091H13.7784C16.0133 19.9091 17.8883 20.2973 19.4034 21.0739C20.928 21.8504 22.0786 22.9394 22.8551 24.3409C23.6411 25.733 24.0341 27.357 24.0341 29.2131C24.0341 31.0786 23.6364 32.6979 22.8409 34.071C22.0549 35.4347 20.8949 36.4905 19.3608 37.2386C17.8267 37.9773 15.9422 38.3466 13.7074 38.3466H5.9375V33.9716H12.9972C14.304 33.9716 15.3741 33.7917 16.2074 33.4318C17.0407 33.0625 17.6563 32.5275 18.054 31.8267C18.4612 31.1165 18.6648 30.2453 18.6648 29.2131C18.6648 28.1809 18.4612 27.3002 18.054 26.571C17.6468 25.8324 17.0265 25.2737 16.1932 24.8949C15.3598 24.5066 14.285 24.3125 12.9688 24.3125H8.1392V49H2.86932ZM17.8977 35.8182L25.0994 49H19.2188L12.1449 35.8182H17.8977ZM28.8849 49V19.9091H39.794C42.0289 19.9091 43.9039 20.3258 45.419 21.1591C46.9437 21.9924 48.0942 23.1383 48.8707 24.5966C49.6567 26.0455 50.0497 27.6932 50.0497 29.5398C50.0497 31.4053 49.6567 33.0625 48.8707 34.5114C48.0848 35.9602 46.9247 37.1013 45.3906 37.9347C43.8565 38.7585 41.9673 39.1705 39.723 39.1705H32.4929V34.8381H39.0128C40.3196 34.8381 41.3897 34.6108 42.223 34.1562C43.0563 33.7017 43.6719 33.0767 44.0696 32.2812C44.4768 31.4858 44.6804 30.572 44.6804 29.5398C44.6804 28.5076 44.4768 27.5985 44.0696 26.8125C43.6719 26.0265 43.0516 25.4157 42.2088 24.9801C41.3755 24.535 40.3007 24.3125 38.9844 24.3125H34.1548V49H28.8849Z" fill="#C8C8C8"/>
<path d="M53.6667 14C52.3667 14 51.2639 13.5472 50.3583 12.6417C49.4528 11.7361 49 10.6333 49 9.33333V5.33333C49 4.96667 49.1306 4.65278 49.3917 4.39167C49.6528 4.13056 49.9667 4 50.3333 4H58.6667C59.3111 4 59.8611 4.22778 60.3167 4.68333C60.7722 5.13889 61 5.68889 61 6.33333C61 6.97778 60.7722 7.52778 60.3167 7.98333C59.8611 8.43889 59.3111 8.66667 58.6667 8.66667H58.3333V9.33333C58.3333 10.6333 57.8806 11.7361 56.975 12.6417C56.0694 13.5472 54.9667 14 53.6667 14ZM50.3333 7.33333H57V5.33333H50.3333V7.33333ZM53.6667 12.6667C54.5889 12.6667 55.375 12.3417 56.025 11.6917C56.675 11.0417 57 10.2556 57 9.33333V8.66667H50.3333V9.33333C50.3333 10.2556 50.6583 11.0417 51.3083 11.6917C51.9583 12.3417 52.7444 12.6667 53.6667 12.6667ZM58.3333 7.33333H58.6667C58.9444 7.33333 59.1806 7.23611 59.375 7.04167C59.5694 6.84722 59.6667 6.61111 59.6667 6.33333C59.6667 6.05556 59.5694 5.81944 59.375 5.625C59.1806 5.43056 58.9444 5.33333 58.6667 5.33333H58.3333V7.33333ZM49 16V14.6667H59.6667V16H49Z" fill="#E8EAED"/>
</svg>
